<svg xmlns="http://www.w3.org/2000/svg" xmlns:xlink="http://www.w3.org/1999/xlink" width="512" height="512" style="" version="1.1" xml:space="preserve">
    <rect id="backgroundrect" width="100%" height="100%" x="0" y="0" fill="none" stroke="none"/>
    <g class="currentLayer" style="">
        <path id="svg_1" d="M412.416,82.31c53.13,44.627,86.898,111.567,86.898,186.383C499.314,403.063,390.377,512,256.008,512  C121.623,512,12.686,403.063,12.686,268.694c0-75.596,34.472-143.133,88.55-187.76c21.136-17.435,45.269-21.304,71.513-20.815  l166.762,0.382C366.336,60.165,390.943,64.279,412.416,82.31z" style="fill:#ccc"/>
        <polygon id="svg_2" points="387.533,134.584 296.995,97.742 256.008,157.05 215.021,97.742 124.482,134.584   172.749,60.119 178.01,51.998 158.128,0 256.008,44.352 353.887,0 334.005,51.998 339.511,60.502 " style="fill:#aaa"/>
        <path id="svg_3" d="M138.094,268.694c0-64.394,25.025-122.93,65.864-166.45l-79.475,32.34l48.267-74.465  c-26.244-0.489-50.377,3.38-71.513,20.815c-54.078,44.627-88.55,112.163-88.55,187.76C12.686,403.063,121.623,512,256.008,512  c21.682,0,42.695-2.852,62.701-8.173C214.718,476.167,138.094,381.383,138.094,268.694z" style="fill:#bbb"/>
        <polygon id="svg_4" points="265.184,80.536 256.008,157.05 215.021,97.742 124.482,134.584 172.749,60.119   178.01,51.998 158.128,0 256.008,44.352 230.008,66.772 " style="fill:#999"/>
        <path id="svg_5" fill="#555" fill-opacity="1" stroke="#555" stroke-width="2" d="M465.98356903114933,207.34062019555626 H322.7930949330833 V64.15014609749022 C322.7930949330833,28.970788278117297 293.24605976789775,0.17472946682340762 258.0537540803543,0.17472946682340762 s-64.73934085272901,28.79605881129387 -64.73934085272901,63.975416630666814 V207.34062019555626 H50.12393912955923 C14.944581310186322,207.34062019555626 -13.851477501107567,236.8876553607418 -13.851477501107567,272.07996104828527 s28.79605881129387,64.73934085272901 63.975416630666814,64.73934085272901 H193.31441322762527 v143.19047409806603 C193.31441322762527,515.1891338184535 222.86144839281081,543.9851926297472 258.0537540803543,543.9851926297472 s64.73934085272901,-28.79605881129387 64.73934085272901,-63.975416630666814 V336.8193019010143 h143.19047409806603 C501.1629268505224,336.8193019010143 529.9589856618162,307.2722667358288 529.9589856618162,272.07996104828527 S501.1629268505224,207.34062019555626 465.98356903114933,207.34062019555626 z" class="" transform="rotate(44.195899963378906 258.0537719726562,272.0799560546875) "/>
    </g>
</svg>
