<svg xmlns="http://www.w3.org/2000/svg" xmlns:xlink="http://www.w3.org/1999/xlink" style="enable-background:new 0 0 512 512" version="1.1" xml:space="preserve" width="512" height="512"><rect id="backgroundrect" width="100%" height="100%" x="0" y="0" fill="none" stroke="none"/>
    

    

    

    
<g class="currentLayer" style=""><title>Layer 1</title><path d="M412.416,82.31c53.13,44.627,86.898,111.567,86.898,186.383C499.314,403.063,390.377,512,256.008,512  C121.623,512,12.686,403.063,12.686,268.694c0-75.596,34.472-143.133,88.55-187.76c21.136-17.435,45.269-21.304,71.513-20.815  l166.762,0.382C366.336,60.165,390.943,64.279,412.416,82.31z" style="fill:#F95428" id="svg_1"/><polygon points="387.533,134.584 296.995,97.742 256.008,157.05 215.021,97.742 124.482,134.584   172.749,60.119 178.01,51.998 158.128,0 256.008,44.352 353.887,0 334.005,51.998 339.511,60.502 " style="fill:#9AD14B" id="svg_2"/><path d="M138.094,268.694c0-64.394,25.025-122.93,65.864-166.45l-79.475,32.34l48.267-74.465  c-26.244-0.489-50.377,3.38-71.513,20.815c-54.078,44.627-88.55,112.163-88.55,187.76C12.686,403.063,121.623,512,256.008,512  c21.682,0,42.695-2.852,62.701-8.173C214.718,476.167,138.094,381.383,138.094,268.694z" style="fill:#E54728" id="svg_3"/><polygon points="265.184,80.536 256.008,157.05 215.021,97.742 124.482,134.584 172.749,60.119   178.01,51.998 158.128,0 256.008,44.352 230.008,66.772 " style="fill:#90BC42" id="svg_4"/><path fill="#000000" fill-opacity="1" stroke="#000000" stroke-opacity="1" stroke-width="130" stroke-dasharray="none" stroke-linejoin="round" stroke-linecap="butt" stroke-dashoffset="" fill-rule="nonzero" opacity="1" marker-start="" marker-mid="" marker-end="" d="M54.888913834535515,60.44446916933316L459.3333422078024,460.4444532747617" id="svg_5"/><path fill="#000000" fill-opacity="1" stroke="#000000" stroke-opacity="1" stroke-width="130" stroke-dasharray="none" stroke-linejoin="round" stroke-linecap="butt" stroke-dashoffset="" fill-rule="nonzero" opacity="1" marker-start="" marker-mid="" marker-end="" d="M452.6666758060453,44.888914231899776L59.33335810237372,469.3333418104379" id="svg_7"/></g></svg>