<svg xmlns="http://www.w3.org/2000/svg" xmlns:xlink="http://www.w3.org/1999/xlink" width="512" height="512" style="" version="1.1" xml:space="preserve">
    <rect id="backgroundrect" width="100%" height="100%" x="0" y="0" fill="none" stroke="none"/>
    <g class="currentLayer" style="">
        <title>
            Layer 1
        </title>
        <path id="svg_1" d="M412.416,82.31c53.13,44.627,86.898,111.567,86.898,186.383C499.314,403.063,390.377,512,256.008,512  C121.623,512,12.686,403.063,12.686,268.694c0-75.596,34.472-143.133,88.55-187.76c21.136-17.435,45.269-21.304,71.513-20.815  l166.762,0.382C366.336,60.165,390.943,64.279,412.416,82.31z" style="fill:#ccc"/>
        <polygon id="svg_2" points="387.533,134.584 296.995,97.742 256.008,157.05 215.021,97.742 124.482,134.584   172.749,60.119 178.01,51.998 158.128,0 256.008,44.352 353.887,0 334.005,51.998 339.511,60.502 " style="fill:#aaa"/>
        <path id="svg_3" d="M138.094,268.694c0-64.394,25.025-122.93,65.864-166.45l-79.475,32.34l48.267-74.465  c-26.244-0.489-50.377,3.38-71.513,20.815c-54.078,44.627-88.55,112.163-88.55,187.76C12.686,403.063,121.623,512,256.008,512  c21.682,0,42.695-2.852,62.701-8.173C214.718,476.167,138.094,381.383,138.094,268.694z" style="fill:#bbb"/>
        <polygon id="svg_4" points="265.184,80.536 256.008,157.05 215.021,97.742 124.482,134.584 172.749,60.119   178.01,51.998 158.128,0 256.008,44.352 230.008,66.772 " style="fill:#999"/>
        <path id="svg_5" fill="#e54728" fill-opacity="1" stroke="#e54728" stroke-width="3" d="M466.6190007853508,312.66667079925537 H381.83333587646484 V227.8810058903694 C381.83333587646484,207.05067298889162 364.33800290584566,190.00000667572021 343.5000033378601,190.00000667572021 s-38.333332538604736,17.050666313171387 -38.333332538604736,37.8809992146492 V312.66667079925537 H220.3810058903694 C199.55067298889162,312.66667079925537 182.50000667572021,330.16200376987456 182.50000667572021,351.0000033378601 s17.050666313171387,38.333332538604736 37.8809992146492,38.333332538604736 H305.16667079925537 v84.78566490888595 C305.16667079925537,494.94933368682865 322.66200376987456,512 343.5000033378601,512 s38.333332538604736,-17.050666313171387 38.333332538604736,-37.8809992146492 V389.33333587646484 h84.78566490888595 C487.44933368682865,389.33333587646484 504.5,371.83800290584566 504.5,351.0000033378601 S487.44933368682865,312.66667079925537 466.6190007853508,312.66667079925537 z" class=""/>
    </g>
</svg>
