<?xml version="1.0" encoding="iso-8859-1"?>
<!--Generator: Adobe Illustrator 19.0.0, SVG Export Plug-In . SVG Version: 6.00 Build 0)-->
<svg xmlns="http://www.w3.org/2000/svg" xmlns:xlink="http://www.w3.org/1999/xlink" id="Layer_1" x="0px" y="0px" style="enable-background:new 0 0 512 512" version="1.1" viewBox="0 0 512 512" xml:space="preserve">
    <path d="M412.416,82.31c53.13,44.627,86.898,111.567,86.898,186.383C499.314,403.063,390.377,512,256.008,512
	C121.623,512,12.686,403.063,12.686,268.694c0-75.596,34.472-143.133,88.55-187.76c21.136-17.435,45.269-21.304,71.513-20.815
	l166.762,0.382C366.336,60.165,390.943,64.279,412.416,82.31z" style="fill:#ccc"/>

    <polygon points="387.533,134.584 296.995,97.742 256.008,157.05 215.021,97.742 124.482,134.584 
	172.749,60.119 178.01,51.998 158.128,0 256.008,44.352 353.887,0 334.005,51.998 339.511,60.502 " style="fill:#aaa"/>

    <path d="M138.094,268.694c0-64.394,25.025-122.93,65.864-166.45l-79.475,32.34l48.267-74.465
	c-26.244-0.489-50.377,3.38-71.513,20.815c-54.078,44.627-88.55,112.163-88.55,187.76C12.686,403.063,121.623,512,256.008,512
	c21.682,0,42.695-2.852,62.701-8.173C214.718,476.167,138.094,381.383,138.094,268.694z" style="fill:#bbb"/>

    <polygon points="265.184,80.536 256.008,157.05 215.021,97.742 124.482,134.584 172.749,60.119 
	178.01,51.998 158.128,0 256.008,44.352 230.008,66.772 " style="fill:#999"/>
</svg>
